<?xml version="1.0" encoding="utf-8"?>
<!-- Generator: Adobe Illustrator 26.0.1, SVG Export Plug-In . SVG Version: 6.00 Build 0)  -->
<svg version="1.1" id="Layer_1" xmlns="http://www.w3.org/2000/svg" xmlns:xlink="http://www.w3.org/1999/xlink" x="0px" y="0px"
	 viewBox="0 0 120 120" style="enable-background:new 0 0 120 120;" xml:space="preserve">
<style type="text/css">
	.st0{fill:#050505;stroke:#000000;stroke-miterlimit:10;}
	.st1{fill:#050505;}
</style>
<g>
	<path class="st0" d="M78.3,57.1c-0.6,0-1-0.4-1.5-0.8c-5.4-5.5-10.9-11-16.4-16.5c-0.7-0.7-0.7-0.7-1.4,0
		c-5.2,5.2-10.4,10.4-15.7,15.7c-0.2,0.2-0.4,0.4-0.7,0.6c-0.6,0.4-1.2,0.4-1.8,0c-1-0.6-1-1.7,0-2.7c6.1-6.2,12.2-12.2,18.3-18.3
		c0.5-0.5,0.8-0.4,1.2,0.1c1.5,1.5,3,3,4.6,4.6c4.7,4.6,9.4,9.4,14.2,14.1c0.4,0.4,0.8,0.9,0.8,1.3C79.9,56.5,79.2,57.1,78.3,57.1z"
		/>
</g>
<g>
	<path class="st1" d="M12.6,88.4c0-1.7,0.2-3.1,0.7-4.2s1.2-1.9,2.2-2.4s2.2-0.8,3.6-0.8c0.4,0,0.8,0,1.2,0c0.4,0,0.8,0.1,1.1,0.1
		c0.4,0,0.7,0.1,1,0.2s0.7,0.2,1,0.3L23,83.8c-0.6-0.2-1.2-0.3-1.9-0.4s-1.2-0.1-1.8-0.1c-0.9,0-1.6,0.2-2.2,0.5
		c-0.6,0.4-1,0.9-1.3,1.7c-0.3,0.8-0.4,1.7-0.4,2.9c0,1.1,0.1,2,0.4,2.7c0.3,0.7,0.7,1.2,1.2,1.5s1.2,0.5,2,0.5c0.5,0,1,0,1.4-0.1
		s0.8-0.1,1.1-0.2v-3.2h-2.7v-2.1H24v6.8c-0.7,0.3-1.5,0.6-2.4,0.7c-0.9,0.2-1.9,0.2-2.9,0.2c-1.3,0-2.5-0.3-3.4-0.8s-1.6-1.3-2-2.3
		S12.6,90,12.6,88.4z"/>
	<path class="st1" d="M31.7,95.4c-0.8,0-1.5-0.1-2.1-0.2c-0.6-0.2-1.2-0.4-1.7-0.7c-0.5-0.3-1-0.8-1.3-1.3c-0.4-0.6-0.6-1.2-0.8-2
		c-0.2-0.8-0.3-1.8-0.3-2.8c0-1.1,0.1-2,0.3-2.8s0.4-1.5,0.8-2c0.4-0.6,0.8-1,1.3-1.4s1.1-0.6,1.7-0.8c0.6-0.1,1.4-0.2,2.1-0.2
		c0.8,0,1.5,0.1,2.1,0.2s1.2,0.4,1.7,0.7c0.5,0.3,0.9,0.8,1.3,1.3c0.4,0.6,0.6,1.2,0.8,2s0.3,1.7,0.3,2.8c0,1.1-0.1,2.1-0.3,2.9
		s-0.5,1.5-0.8,2c-0.4,0.6-0.8,1-1.3,1.3s-1.1,0.6-1.7,0.7C33.2,95.3,32.5,95.4,31.7,95.4z M31.7,93.2c0.4,0,0.8,0,1.2-0.1
		s0.7-0.3,1-0.5s0.5-0.5,0.7-0.9s0.4-0.9,0.5-1.4s0.2-1.3,0.2-2c0-0.8-0.1-1.5-0.2-2.1s-0.3-1.1-0.5-1.4c-0.2-0.4-0.5-0.7-0.7-0.9
		c-0.3-0.2-0.6-0.4-1-0.5s-0.7-0.1-1.1-0.1s-0.8,0-1.1,0.1c-0.3,0.1-0.7,0.2-1,0.5c-0.3,0.2-0.5,0.5-0.7,0.9s-0.4,0.9-0.5,1.4
		s-0.2,1.3-0.2,2.1s0.1,1.5,0.2,2c0.1,0.6,0.3,1,0.5,1.4s0.5,0.7,0.8,0.9c0.3,0.2,0.6,0.4,0.9,0.5C30.9,93.2,31.3,93.2,31.7,93.2z"
		/>
	<path class="st1" d="M55.1,83.6H51v11.6h-2.7V83.6H44v-2.4h11.1V83.6z"/>
	<path class="st1" d="M61.9,95.4c-0.8,0-1.5-0.1-2.1-0.2s-1.2-0.4-1.7-0.7c-0.5-0.3-1-0.8-1.3-1.3c-0.4-0.6-0.6-1.2-0.8-2
		s-0.3-1.8-0.3-2.8c0-1.1,0.1-2,0.3-2.8s0.4-1.5,0.8-2c0.4-0.6,0.8-1,1.3-1.4s1.1-0.6,1.7-0.8c0.6-0.1,1.4-0.2,2.1-0.2
		c0.8,0,1.5,0.1,2.1,0.2c0.7,0.2,1.2,0.4,1.7,0.7c0.5,0.3,0.9,0.8,1.3,1.3c0.4,0.6,0.6,1.2,0.8,2s0.3,1.7,0.3,2.8
		c0,1.1-0.1,2.1-0.3,2.9c-0.2,0.8-0.5,1.5-0.8,2c-0.4,0.6-0.8,1-1.3,1.3S64.6,95,64,95.1S62.7,95.4,61.9,95.4z M61.9,93.2
		c0.4,0,0.8,0,1.1-0.1c0.4-0.1,0.7-0.3,1-0.5c0.3-0.2,0.5-0.5,0.7-0.9s0.4-0.9,0.5-1.4s0.2-1.3,0.2-2c0-0.8-0.1-1.5-0.2-2.1
		s-0.3-1.1-0.5-1.4c-0.2-0.4-0.5-0.7-0.7-0.9s-0.6-0.4-1-0.5s-0.7-0.1-1.1-0.1c-0.4,0-0.8,0-1.1,0.1s-0.7,0.2-0.9,0.5
		c-0.3,0.2-0.5,0.5-0.7,0.9s-0.4,0.9-0.5,1.4s-0.2,1.3-0.2,2.1s0.1,1.5,0.2,2c0.1,0.6,0.3,1,0.5,1.4s0.5,0.7,0.8,0.9
		s0.6,0.4,0.9,0.5S61.5,93.2,61.9,93.2z"/>
	<path class="st1" d="M85.4,83.6h-4.2v11.6h-2.7V83.6h-4.2v-2.4h11.1C85.4,81.2,85.4,83.6,85.4,83.6z"/>
	<path class="st1" d="M92.2,95.4c-0.8,0-1.5-0.1-2.1-0.2s-1.2-0.4-1.7-0.7c-0.5-0.3-1-0.8-1.3-1.3c-0.4-0.6-0.6-1.2-0.8-2
		c-0.2-0.8-0.3-1.8-0.3-2.8c0-1.1,0.1-2,0.3-2.8c0.2-0.8,0.4-1.5,0.8-2c0.4-0.6,0.8-1,1.3-1.4s1.1-0.6,1.7-0.8
		c0.6-0.1,1.4-0.2,2.1-0.2c0.8,0,1.5,0.1,2.1,0.2c0.7,0.2,1.2,0.4,1.7,0.7c0.5,0.3,0.9,0.8,1.3,1.3c0.4,0.6,0.6,1.2,0.8,2
		s0.3,1.7,0.3,2.8c0,1.1-0.1,2.1-0.3,2.9c-0.2,0.8-0.5,1.5-0.8,2c-0.4,0.6-0.8,1-1.3,1.3s-1.1,0.6-1.7,0.7S93,95.4,92.2,95.4z
		 M92.2,93.2c0.4,0,0.8,0,1.1-0.1c0.4-0.1,0.7-0.3,1-0.5s0.5-0.5,0.7-0.9s0.4-0.9,0.5-1.4s0.2-1.3,0.2-2c0-0.8-0.1-1.5-0.2-2.1
		s-0.3-1.1-0.5-1.4c-0.2-0.4-0.5-0.7-0.7-0.9s-0.6-0.4-1-0.5s-0.7-0.1-1.1-0.1s-0.8,0-1.1,0.1c-0.3,0.1-0.7,0.2-0.9,0.5
		c-0.3,0.2-0.5,0.5-0.7,0.9s-0.4,0.9-0.5,1.4s-0.2,1.3-0.2,2.1s0.1,1.5,0.2,2c0.1,0.6,0.3,1,0.5,1.4s0.5,0.7,0.8,0.9
		s0.6,0.4,0.9,0.5C91.4,93.2,91.8,93.2,92.2,93.2z"/>
	<path class="st1" d="M100.4,95.2v-14c0.9,0,1.7-0.1,2.3-0.1c0.7,0,1.2,0,1.7-0.1c0.5,0,0.8,0,1.1,0c1.2,0,2.2,0.1,3,0.3
		c0.8,0.2,1.4,0.5,1.9,0.8c0.4,0.4,0.8,0.9,1,1.5s0.3,1.4,0.3,2.2c0,0.9-0.1,1.7-0.3,2.3c-0.2,0.6-0.5,1.2-0.9,1.6s-1,0.7-1.7,0.9
		s-1.5,0.3-2.5,0.3c-0.3,0-0.5,0-0.7,0s-0.4,0-0.5,0c-0.2,0-0.3,0-0.5,0s-0.3,0-0.6,0c-0.2,0-0.5,0-0.8,0v4.3L100.4,95.2L100.4,95.2
		z M103.2,83.3v5.5c0.2,0,0.5,0,0.6,0c0.2,0,0.4,0,0.5,0s0.3,0,0.5,0s0.4,0,0.6,0c0.7,0,1.3-0.1,1.7-0.2c0.4-0.1,0.8-0.3,1-0.5
		s0.4-0.6,0.5-0.9c0.1-0.4,0.1-0.8,0.1-1.4c0-0.5,0-0.9-0.1-1.2c-0.1-0.3-0.3-0.6-0.5-0.8c-0.2-0.2-0.5-0.4-1-0.5
		c-0.4-0.1-0.9-0.1-1.5-0.1c-0.2,0-0.3,0-0.5,0s-0.3,0-0.5,0s-0.4,0-0.6,0C103.8,83.2,103.5,83.3,103.2,83.3z"/>
</g>
</svg>
