<?xml version="1.0" encoding="utf-8"?>
<!-- Generator: Adobe Illustrator 26.0.1, SVG Export Plug-In . SVG Version: 6.00 Build 0)  -->
<svg version="1.1" id="Layer_1" xmlns="http://www.w3.org/2000/svg" xmlns:xlink="http://www.w3.org/1999/xlink" x="0px" y="0px"
	 viewBox="0 0 134.3 100" style="enable-background:new 0 0 134.3 100;" xml:space="preserve">
<style type="text/css">
	.st0{stroke:#000000;stroke-miterlimit:10;}
</style>
<g>
	<path class="st0" d="M86.4,88c0-1.3,0.8-2.1,1.6-2.9c11-11,22.1-22.1,33.1-33.1c1.4-1.4,1.4-1.4,0-2.8c-10.5-10.5-21-21-31.6-31.6
		c-0.4-0.4-0.9-0.9-1.3-1.4c-0.8-1.2-0.8-2.4,0-3.6c1.3-1.9,3.5-2,5.5,0c12.3,12.3,24.5,24.6,36.8,36.8c1,1,0.8,1.5-0.1,2.4
		c-3.1,3.1-6.2,6.2-9.3,9.3c-9.4,9.5-18.9,19-28.4,28.5c-0.9,0.9-1.8,1.6-2.6,1.6C87.7,91.2,86.4,89.9,86.4,88z"/>
</g>
<g>
	<path d="M21.9,85.5H1.3v-3.8l14.4-9H1.3v-3.6H22v3.8l-14.2,9h14.1C21.9,81.9,21.9,85.5,21.9,85.5z"/>
	<path d="M21.9,65.5H1.3V51.4h3.5v10h4.8v-9.3H13v9.3h5.3V50.9h3.5v14.6H21.9z"/>
	<path d="M21.9,49.8l-10.5-6.6l-10,6.1l-0.1-4.8l7.1-3.9l-7.1-3.8l0.1-4.5l9.9,6L21.9,32l0.1,4.7l-7.6,4.2l7.6,4.3L21.9,49.8z"/>
	<path d="M4.9,15v6.1h17v4h-17v6.2H1.3V15H4.9z"/>
	<path d="M33.2,74.3l3.1,0.8c-0.1,0.4-0.3,0.8-0.4,1.3c-0.1,0.5-0.2,1-0.3,1.5s-0.1,1-0.2,1.6c0,0.5-0.1,1-0.1,1.5
		c0,1.3,0.2,2.3,0.6,3c0.4,0.7,1,1.1,1.8,1.1c0.4,0,0.7-0.1,1-0.3c0.3-0.2,0.6-0.5,0.9-1c0.3-0.4,0.5-1,0.8-1.7s0.5-1.6,0.8-2.6
		c0.3-1.1,0.6-2,1-2.8s0.8-1.4,1.3-2s1-0.9,1.6-1.1s1.3-0.4,2.1-0.4c1.3,0,2.4,0.3,3.2,1c0.9,0.7,1.6,1.7,2,3
		c0.5,1.3,0.7,2.9,0.7,4.8c0,0.6,0,1.3-0.1,1.9s-0.1,1.4-0.2,2.1s-0.2,1.4-0.4,2s-0.3,1.2-0.5,1.7L49,89.1c0.2-0.5,0.3-1.1,0.5-1.7
		c0.1-0.6,0.3-1.2,0.4-1.9c0.1-0.6,0.2-1.3,0.2-1.9c0.1-0.6,0.1-1.2,0.1-1.8c0-1-0.1-1.8-0.3-2.4s-0.5-1.1-0.8-1.5
		c-0.4-0.3-0.8-0.5-1.4-0.5c-0.4,0-0.8,0.1-1.1,0.4s-0.6,0.6-0.8,1.1s-0.5,1.2-0.8,2s-0.6,1.7-0.9,2.8c-0.3,0.9-0.7,1.8-1.1,2.5
		c-0.4,0.7-0.8,1.3-1.3,1.7s-1,0.8-1.6,1s-1.3,0.3-2.1,0.3c-0.9,0-1.7-0.2-2.4-0.5s-1.3-0.8-1.9-1.5c-0.5-0.7-0.9-1.5-1.2-2.6
		c-0.3-1-0.4-2.3-0.4-3.7c0-0.8,0-1.7,0.1-2.5s0.2-1.6,0.4-2.4C32.8,75.4,33,74.8,33.2,74.3z"/>
	<path d="M53.1,70.9H32.5v-4h17.1v-9.5h3.5V70.9z"/>
	<path d="M53.1,55H32.5v-4h20.6V55z"/>
	<path d="M53.4,39.8c0,0.9,0,1.8,0,2.7s0,1.7-0.1,2.5c0,0.8-0.1,1.6-0.1,2.4H32.5c-0.1-0.9-0.1-1.7-0.2-2.5c0-0.8-0.1-1.6-0.1-2.4
		c0-0.8,0-1.6,0-2.4c0-2.3,0.4-4.2,1.1-5.7s1.9-2.5,3.4-3.2s3.6-1,6.1-1c2.4,0,4.4,0.4,6,1.1s2.7,1.8,3.5,3.2
		C53,35.9,53.4,37.7,53.4,39.8z M50.2,39.6c0-1.1-0.2-2.1-0.7-2.9C49,36,48.2,35.4,47.1,35c-1.1-0.4-2.5-0.6-4.3-0.6
		s-3.3,0.2-4.4,0.6c-1.1,0.4-1.9,1-2.3,1.8s-0.7,1.8-0.7,3c0,0.4,0,0.7,0,1.2c0,0.4,0,0.8,0,1.2s0,0.8,0.1,1.2H50
		c0-0.3,0-0.6,0.1-0.9s0-0.6,0-0.9c0-0.3,0-0.6,0-0.9C50.2,40.2,50.2,39.9,50.2,39.6z"/>
	<path d="M53.1,27.4H32.5V13.3H36v10h4.8V14h3.4v9.3h5.3V12.7H53L53.1,27.4L53.1,27.4z"/>
</g>
</svg>
