<?xml version="1.0" encoding="utf-8"?>
<!-- Generator: Adobe Illustrator 26.0.1, SVG Export Plug-In . SVG Version: 6.00 Build 0)  -->
<svg version="1.1" id="Layer_1" xmlns="http://www.w3.org/2000/svg" xmlns:xlink="http://www.w3.org/1999/xlink" x="0px" y="0px"
	 viewBox="0 0 100 100" style="enable-background:new 0 0 100 100;" xml:space="preserve">
<g>
	<g>
		<path d="M20.3,90c0.8,0,1.7-0.7,2.6-1.6c9.5-9.5,19-19,28.4-28.5c3.1-3.1,6.2-6.2,9.3-9.3c0.9-0.9,1.1-1.4,0.1-2.4
			C48.4,36,36.2,23.7,23.9,11.4c-2-2-4.2-1.9-5.5,0c-0.8,1.2-0.8,2.4,0,3.6c0.4,0.5,0.9,1,1.3,1.4c10.5,10.5,21,21,31.6,31.5
			c1.4,1.4,1.4,1.4,0,2.8c-11,11-22.1,22.1-33.1,33.1c-0.8,0.8-1.6,1.6-1.6,2.9C16.6,88.7,17.9,90,20.3,90z"/>
	</g>
	<g>
		<path d="M42.3,90c0.8,0,1.7-0.7,2.6-1.6c9.5-9.5,19-19,28.4-28.5c3.1-3.1,6.2-6.2,9.3-9.3c0.9-0.9,1.1-1.4,0.1-2.4
			C70.4,36,58.2,23.7,45.9,11.4c-2-2-4.2-1.9-5.5,0c-0.8,1.2-0.8,2.4,0,3.6c0.4,0.5,0.9,1,1.3,1.4c10.5,10.5,21,21,31.6,31.5
			c1.4,1.4,1.4,1.4,0,2.8c-11,11-22.1,22.1-33.1,33.1c-0.8,0.8-1.6,1.6-1.6,2.9C38.6,88.7,39.9,90,42.3,90z"/>
	</g>
</g>
</svg>
