<?xml version="1.0" encoding="utf-8"?>
<!-- Generator: Adobe Illustrator 26.0.1, SVG Export Plug-In . SVG Version: 6.00 Build 0)  -->
<svg version="1.1" id="Layer_1" xmlns="http://www.w3.org/2000/svg" xmlns:xlink="http://www.w3.org/1999/xlink" x="0px" y="0px"
	 viewBox="0 0 269 100" style="enable-background:new 0 0 269 100;" xml:space="preserve">
<style type="text/css">
	.st0{fill:#FFFFFF;stroke:#FFFFFF;stroke-miterlimit:10;}
	.st1{enable-background:new    ;}
	.st2{fill:#FFFFFF;}
	.st3{fill:none;stroke:#FFFFFF;stroke-miterlimit:10;}
</style>
<g>
	<g>
		<path class="st0" d="M187.1,90c0.8,0,1.7-0.7,2.6-1.6c9.5-9.5,19-19,28.4-28.5c3.1-3.1,6.2-6.2,9.3-9.3c0.9-0.9,1.1-1.4,0.1-2.4
			C215.2,36,203,23.7,190.7,11.4c-2-2-4.2-1.9-5.5,0c-0.8,1.2-0.8,2.4,0,3.6c0.4,0.5,0.9,1,1.3,1.4c10.5,10.5,21,21,31.6,31.5
			c1.4,1.4,1.4,1.4,0,2.8c-11,11-22.1,22.1-33.1,33.1c-0.8,0.8-1.6,1.6-1.6,2.9C183.4,88.7,184.7,90,187.1,90z"/>
	</g>
	<g>
		<path class="st0" d="M209.1,90c0.8,0,1.7-0.7,2.6-1.6c9.5-9.5,19-19,28.4-28.5c3.1-3.1,6.2-6.2,9.3-9.3c0.9-0.9,1.1-1.4,0.1-2.4
			C237.2,36,225,23.7,212.7,11.4c-2-2-4.2-1.9-5.5,0c-0.8,1.2-0.8,2.4,0,3.6c0.4,0.5,0.9,1,1.3,1.4c10.5,10.5,21,21,31.6,31.5
			c1.4,1.4,1.4,1.4,0,2.8c-11,11-22.1,22.1-33.1,33.1c-0.8,0.8-1.6,1.6-1.6,2.9C205.4,88.7,206.7,90,209.1,90z"/>
	</g>
</g>
<g class="st1">
	<path class="st2" d="M87.8,44.4V20.7h2.7l12.5,19.1v-19h2.6v23.6h-2.7l-12.4-19v18.9H87.8z"/>
	<path class="st2" d="M110.4,44.4V20.8h15v2.6h-12v7.4h11.2v2.6h-11.2v8.4H126v2.6H110.4z"/>
	<path class="st2" d="M127.4,44.3l8-12L128,20.9l3.4-0.2l5.8,9.3l5.7-9.3l3.2,0.2l-7.3,11.3l7.7,12.1l-3.3,0.2l-6.3-10l-6.3,10
		L127.4,44.3z"/>
	<path class="st2" d="M164.6,23.4h-7.2v21h-2.9v-21h-7.2v-2.6h17.4V23.4z"/>
</g>
<g class="st1">
	<path class="st3" d="M87.8,44.4V20.7h2.7l12.5,19.1v-19h2.6v23.6h-2.7l-12.4-19v18.9H87.8z"/>
	<path class="st3" d="M110.4,44.4V20.8h15v2.6h-12v7.4h11.2v2.6h-11.2v8.4H126v2.6H110.4z"/>
	<path class="st3" d="M127.4,44.3l8-12L128,20.9l3.4-0.2l5.8,9.3l5.7-9.3l3.2,0.2l-7.3,11.3l7.7,12.1l-3.3,0.2l-6.3-10l-6.3,10
		L127.4,44.3z"/>
	<path class="st3" d="M164.6,23.4h-7.2v21h-2.9v-21h-7.2v-2.6h17.4V23.4z"/>
</g>
<g class="st1">
	<path class="st2" d="M32.9,73.5c0-3,0.4-5.4,1.2-7.2c0.8-1.8,2-3.2,3.6-4c1.6-0.8,3.5-1.3,5.8-1.3c0.7,0,1.3,0,1.8,0.1
		c0.6,0,1.1,0.1,1.6,0.2s1,0.2,1.5,0.3c0.5,0.1,1,0.2,1.5,0.4l-0.6,2.3c-0.7-0.2-1.3-0.3-1.9-0.4s-1.2-0.2-1.8-0.2
		c-0.6,0-1.3-0.1-1.9-0.1c-1.3,0-2.4,0.2-3.4,0.5c-1,0.3-1.8,0.9-2.4,1.7c-0.7,0.8-1.1,1.8-1.5,3.1c-0.3,1.3-0.5,2.9-0.5,4.7
		c0,1.7,0.2,3.2,0.5,4.3c0.3,1.2,0.8,2.1,1.5,2.8c0.7,0.7,1.4,1.2,2.4,1.6c0.9,0.3,2,0.5,3.3,0.5c1.1,0,2.2-0.1,3.3-0.2
		c1.2-0.2,2.2-0.4,3.2-0.7l0.5,2.4c-0.5,0.2-1.1,0.3-1.6,0.4c-0.6,0.1-1.2,0.2-1.8,0.3c-0.6,0.1-1.3,0.2-2,0.2s-1.4,0.1-2.1,0.1
		c-1.6,0-3.1-0.2-4.3-0.6c-1.3-0.4-2.3-1.1-3.2-2c-0.9-0.9-1.5-2.1-2-3.6S32.9,75.7,32.9,73.5z"/>
	<path class="st2" d="M53.8,84.9V61.3h2.9v11.9h12.4V61.3H72v23.6h-2.9v-9.1H56.7v9.1H53.8z"/>
	<path class="st2" d="M74.8,84.9l8.1-23.8h3.3l8.1,23.8h-3.2l-2-6.1h-9.2l-2,6.1H74.8z M80.5,76.4h8l-4-12.5L80.5,76.4z"/>
	<path class="st2" d="M97,84.9V61.3c1.4-0.1,2.5-0.1,3.5-0.2c1,0,1.8-0.1,2.4-0.1c0.7,0,1.2,0,1.6,0c1.9,0,3.5,0.1,4.7,0.4
		s2.2,0.7,2.9,1.3c0.7,0.6,1.2,1.4,1.5,2.4c0.3,1,0.4,2.2,0.4,3.6c0,1.5-0.2,2.7-0.5,3.8c-0.3,1-0.8,1.9-1.5,2.5s-1.6,1.1-2.7,1.4
		c-1.1,0.3-2.5,0.4-4.1,0.4c-0.5,0-0.8,0-1.2,0s-0.7,0-1,0c-0.3,0-0.6,0-0.9,0c-0.3,0-0.7,0-1,0c-0.4,0-0.8,0-1.3-0.1v8.1H97z
		 M100,63.5v10.9c0.5,0,0.9,0,1.3,0c0.4,0,0.8,0,1.1,0s0.7,0,1.1,0c0.4,0,0.8,0,1.2,0c1.3,0,2.4-0.1,3.2-0.3c0.9-0.2,1.5-0.5,2-1
		c0.5-0.5,0.8-1.1,1.1-1.8c0.2-0.8,0.3-1.7,0.3-2.7c0-1-0.1-1.8-0.3-2.4c-0.2-0.7-0.5-1.2-1-1.7c-0.5-0.4-1.1-0.8-2-0.9
		c-0.8-0.2-1.9-0.3-3.2-0.3c-0.3,0-0.6,0-0.9,0s-0.6,0-1,0c-0.4,0-0.8,0-1.3,0.1C101.2,63.4,100.6,63.5,100,63.5z"/>
	<path class="st2" d="M132.9,63.9h-7.2v21h-2.9v-21h-7.2v-2.6h17.4V63.9z"/>
	<path class="st2" d="M135.6,84.9V61.3h15v2.6h-12v7.4h11.2v2.6h-11.2v8.4h12.6v2.6H135.6z"/>
	<path class="st2" d="M172.8,85.3c-0.6,0-1.1-0.1-1.7-0.3c-0.6-0.2-1.2-0.6-1.8-1c-0.6-0.5-1.2-1.1-1.9-1.8c-0.6-0.7-1.3-1.6-2-2.7
		c-0.7-1.1-1.5-2.3-2.3-3.7c-0.2,0-0.5,0-0.9,0c-0.3,0-0.6,0-0.8,0c-0.6,0-1.3,0-2,0c-0.7,0-1.4,0-2.1,0v9.2h-2.9V61.3
		c1-0.1,1.9-0.1,2.7-0.2c0.8,0,1.6-0.1,2.4-0.1s1.5,0,2.3,0c1.7,0,3.2,0.1,4.4,0.4c1.2,0.2,2.2,0.6,3,1.2c0.8,0.5,1.3,1.3,1.7,2.1
		c0.4,0.9,0.5,2,0.5,3.3c0,1.4-0.2,2.6-0.6,3.5c-0.4,1-1,1.7-1.8,2.3c-0.8,0.6-1.8,1-2.9,1.3c0.8,1.3,1.5,2.5,2.2,3.4
		c0.7,0.9,1.3,1.7,1.9,2.3c0.6,0.6,1.1,1,1.6,1.3c0.5,0.3,0.9,0.4,1.3,0.4c0,0,0.1,0,0.2,0s0.2,0,0.3-0.1l0.1,2.8
		c-0.1,0-0.2,0-0.4,0.1C173.2,85.3,173,85.3,172.8,85.3z M162,73.3c1.1,0,2.1-0.1,2.9-0.3c0.8-0.2,1.5-0.5,2-0.9s0.9-0.9,1.2-1.6
		c0.2-0.6,0.4-1.4,0.4-2.4c0-1.2-0.2-2.2-0.6-2.9s-1.1-1.2-2-1.6c-0.9-0.3-2.2-0.5-3.9-0.5c-0.4,0-0.8,0-1.2,0c-0.3,0-0.7,0-1,0
		c-0.3,0-0.7,0-1,0c-0.4,0-0.8,0-1.3,0.1v9.7c0.4,0,0.8,0,1.2,0.1c0.4,0,0.8,0,1.1,0c0.4,0,0.7,0,1.1,0S161.6,73.3,162,73.3z"/>
</g>
<g class="st1">
	<path class="st3" d="M32.9,73.5c0-3,0.4-5.4,1.2-7.2c0.8-1.8,2-3.2,3.6-4c1.6-0.8,3.5-1.3,5.8-1.3c0.7,0,1.3,0,1.8,0.1
		c0.6,0,1.1,0.1,1.6,0.2s1,0.2,1.5,0.3c0.5,0.1,1,0.2,1.5,0.4l-0.6,2.3c-0.7-0.2-1.3-0.3-1.9-0.4s-1.2-0.2-1.8-0.2
		c-0.6,0-1.3-0.1-1.9-0.1c-1.3,0-2.4,0.2-3.4,0.5c-1,0.3-1.8,0.9-2.4,1.7c-0.7,0.8-1.1,1.8-1.5,3.1c-0.3,1.3-0.5,2.9-0.5,4.7
		c0,1.7,0.2,3.2,0.5,4.3c0.3,1.2,0.8,2.1,1.5,2.8c0.7,0.7,1.4,1.2,2.4,1.6c0.9,0.3,2,0.5,3.3,0.5c1.1,0,2.2-0.1,3.3-0.2
		c1.2-0.2,2.2-0.4,3.2-0.7l0.5,2.4c-0.5,0.2-1.1,0.3-1.6,0.4c-0.6,0.1-1.2,0.2-1.8,0.3c-0.6,0.1-1.3,0.2-2,0.2s-1.4,0.1-2.1,0.1
		c-1.6,0-3.1-0.2-4.3-0.6c-1.3-0.4-2.3-1.1-3.2-2c-0.9-0.9-1.5-2.1-2-3.6S32.9,75.7,32.9,73.5z"/>
	<path class="st3" d="M53.8,84.9V61.3h2.9v11.9h12.4V61.3H72v23.6h-2.9v-9.1H56.7v9.1H53.8z"/>
	<path class="st3" d="M74.8,84.9l8.1-23.8h3.3l8.1,23.8h-3.2l-2-6.1h-9.2l-2,6.1H74.8z M80.5,76.4h8l-4-12.5L80.5,76.4z"/>
	<path class="st3" d="M97,84.9V61.3c1.4-0.1,2.5-0.1,3.5-0.2c1,0,1.8-0.1,2.4-0.1c0.7,0,1.2,0,1.6,0c1.9,0,3.5,0.1,4.7,0.4
		s2.2,0.7,2.9,1.3c0.7,0.6,1.2,1.4,1.5,2.4c0.3,1,0.4,2.2,0.4,3.6c0,1.5-0.2,2.7-0.5,3.8c-0.3,1-0.8,1.9-1.5,2.5s-1.6,1.1-2.7,1.4
		c-1.1,0.3-2.5,0.4-4.1,0.4c-0.5,0-0.8,0-1.2,0s-0.7,0-1,0c-0.3,0-0.6,0-0.9,0c-0.3,0-0.7,0-1,0c-0.4,0-0.8,0-1.3-0.1v8.1H97z
		 M100,63.5v10.9c0.5,0,0.9,0,1.3,0c0.4,0,0.8,0,1.1,0s0.7,0,1.1,0c0.4,0,0.8,0,1.2,0c1.3,0,2.4-0.1,3.2-0.3c0.9-0.2,1.5-0.5,2-1
		c0.5-0.5,0.8-1.1,1.1-1.8c0.2-0.8,0.3-1.7,0.3-2.7c0-1-0.1-1.8-0.3-2.4c-0.2-0.7-0.5-1.2-1-1.7c-0.5-0.4-1.1-0.8-2-0.9
		c-0.8-0.2-1.9-0.3-3.2-0.3c-0.3,0-0.6,0-0.9,0s-0.6,0-1,0c-0.4,0-0.8,0-1.3,0.1C101.2,63.4,100.6,63.5,100,63.5z"/>
	<path class="st3" d="M132.9,63.9h-7.2v21h-2.9v-21h-7.2v-2.6h17.4V63.9z"/>
	<path class="st3" d="M135.6,84.9V61.3h15v2.6h-12v7.4h11.2v2.6h-11.2v8.4h12.6v2.6H135.6z"/>
	<path class="st3" d="M172.8,85.3c-0.6,0-1.1-0.1-1.7-0.3c-0.6-0.2-1.2-0.6-1.8-1c-0.6-0.5-1.2-1.1-1.9-1.8c-0.6-0.7-1.3-1.6-2-2.7
		c-0.7-1.1-1.5-2.3-2.3-3.7c-0.2,0-0.5,0-0.9,0c-0.3,0-0.6,0-0.8,0c-0.6,0-1.3,0-2,0c-0.7,0-1.4,0-2.1,0v9.2h-2.9V61.3
		c1-0.1,1.9-0.1,2.7-0.2c0.8,0,1.6-0.1,2.4-0.1s1.5,0,2.3,0c1.7,0,3.2,0.1,4.4,0.4c1.2,0.2,2.2,0.6,3,1.2c0.8,0.5,1.3,1.3,1.7,2.1
		c0.4,0.9,0.5,2,0.5,3.3c0,1.4-0.2,2.6-0.6,3.5c-0.4,1-1,1.7-1.8,2.3c-0.8,0.6-1.8,1-2.9,1.3c0.8,1.3,1.5,2.5,2.2,3.4
		c0.7,0.9,1.3,1.7,1.9,2.3c0.6,0.6,1.1,1,1.6,1.3c0.5,0.3,0.9,0.4,1.3,0.4c0,0,0.1,0,0.2,0s0.2,0,0.3-0.1l0.1,2.8
		c-0.1,0-0.2,0-0.4,0.1C173.2,85.3,173,85.3,172.8,85.3z M162,73.3c1.1,0,2.1-0.1,2.9-0.3c0.8-0.2,1.5-0.5,2-0.9s0.9-0.9,1.2-1.6
		c0.2-0.6,0.4-1.4,0.4-2.4c0-1.2-0.2-2.2-0.6-2.9s-1.1-1.2-2-1.6c-0.9-0.3-2.2-0.5-3.9-0.5c-0.4,0-0.8,0-1.2,0c-0.3,0-0.7,0-1,0
		c-0.3,0-0.7,0-1,0c-0.4,0-0.8,0-1.3,0.1v9.7c0.4,0,0.8,0,1.2,0.1c0.4,0,0.8,0,1.1,0c0.4,0,0.7,0,1.1,0S161.6,73.3,162,73.3z"/>
</g>
</svg>
