<?xml version="1.0" encoding="utf-8"?>
<!-- Generator: Adobe Illustrator 26.0.1, SVG Export Plug-In . SVG Version: 6.00 Build 0)  -->
<svg version="1.1" id="Layer_1" xmlns="http://www.w3.org/2000/svg" xmlns:xlink="http://www.w3.org/1999/xlink" x="0px" y="0px"
	 viewBox="0 0 134.3 100" style="enable-background:new 0 0 134.3 100;" xml:space="preserve">
<style type="text/css">
	.st0{fill:#FFFFFF;}
	.st1{enable-background:new    ;}
</style>
<g>
	<path class="st0" d="M43.7,90c-0.8,0-1.7-0.7-2.6-1.6c-9.5-9.5-19-19-28.4-28.5c-3.1-3.1-6.2-6.2-9.3-9.3c-0.9-0.9-1.1-1.4-0.1-2.4
		C15.6,36,27.8,23.7,40.1,11.4c2-2,4.2-1.9,5.5,0c0.8,1.2,0.8,2.4,0,3.6c-0.4,0.5-0.9,1-1.3,1.4C33.7,27,23.2,37.5,12.7,48
		c-1.4,1.4-1.4,1.4,0,2.8c11,11,22.1,22.1,33.1,33.1c0.8,0.8,1.6,1.6,1.6,2.9C47.4,88.7,46.1,90,43.7,90z"/>
</g>
<g class="st1">
	<path class="st0" d="M100.3,91.3H77.5c-0.1-1.5-0.1-2.8-0.2-3.8c0-1.1-0.1-2-0.1-2.7c0-0.8,0-1.3,0-1.7c0-2,0.1-3.6,0.4-4.9
		c0.3-1.3,0.8-2.3,1.4-3c0.6-0.7,1.4-1.2,2.4-1.5c1-0.3,2.2-0.5,3.6-0.5c1.5,0,2.7,0.2,3.8,0.5c1,0.3,1.9,0.8,2.6,1.5
		c0.7,0.7,1.2,1.6,1.5,2.7c0.3,1.1,0.5,2.5,0.5,4.1c0,0.5,0,0.8,0,1.2c0,0.3,0,0.6,0,0.9c0,0.3,0,0.5,0,0.8c0,0.3,0,0.6,0,0.9
		c0,0.3,0,0.8,0,1.3h6.9V91.3z M81,86.8h8.9c0-0.4,0-0.7,0-1c0-0.3,0-0.6,0-0.9c0-0.3,0-0.5,0-0.8c0-0.3,0-0.6,0-0.9
		c0-1.1-0.1-2.1-0.3-2.8c-0.2-0.7-0.5-1.3-0.8-1.7c-0.4-0.4-0.9-0.7-1.5-0.8c-0.6-0.2-1.4-0.2-2.3-0.2c-0.8,0-1.4,0.1-1.9,0.2
		c-0.5,0.2-1,0.4-1.3,0.8c-0.3,0.4-0.6,0.9-0.8,1.5c-0.2,0.7-0.2,1.5-0.2,2.5c0,0.3,0,0.5,0,0.8s0,0.5,0,0.8c0,0.3,0,0.7,0,1.1
		C80.9,85.7,80.9,86.2,81,86.8z"/>
	<path class="st0" d="M100.6,51.6c0,0.6-0.1,1.2-0.3,1.9s-0.5,1.2-0.9,1.9c-0.4,0.6-1,1.3-1.6,1.9c-0.6,0.7-1.4,1.3-2.4,2
		c-0.9,0.7-2,1.5-3.1,2.3c0,0.2,0,0.4,0,0.7s0,0.5,0,0.7c0,0.4,0,0.9,0,1.3s0,0.9,0,1.4h8v4.5H77.5C77.5,69,77.4,68,77.4,67
		c0-1-0.1-1.9-0.1-2.7c0-0.8,0-1.6,0-2.4c0-1.8,0.1-3.3,0.4-4.5c0.2-1.2,0.6-2.3,1.2-3c0.6-0.8,1.3-1.4,2.2-1.7
		c0.9-0.4,1.9-0.5,3.2-0.5c1.3,0,2.4,0.2,3.3,0.6c0.9,0.4,1.7,1,2.3,1.7c0.6,0.7,1,1.6,1.4,2.6c0.9-0.7,1.6-1.3,2.3-1.8
		c0.6-0.6,1.2-1.1,1.6-1.6c0.4-0.5,0.7-0.9,1-1.4c0.2-0.4,0.3-0.8,0.3-1.2c0-0.1,0-0.1,0-0.2c0-0.1,0-0.2,0-0.3h4.3
		c0,0.1,0,0.3,0.1,0.5C100.6,51.2,100.6,51.4,100.6,51.6z M88.7,62c0-0.9-0.1-1.7-0.2-2.3c-0.1-0.7-0.4-1.2-0.7-1.6
		c-0.3-0.4-0.7-0.8-1.2-1c-0.5-0.2-1.1-0.3-1.9-0.3c-1,0-1.7,0.2-2.3,0.5s-1,0.8-1.2,1.6c-0.3,0.7-0.4,1.8-0.4,3c0,0.4,0,0.7,0,1
		c0,0.3,0,0.6,0,0.8c0,0.3,0,0.6,0,0.9c0,0.3,0,0.7,0.1,1.2h7.7c0-0.4,0-0.7,0-1c0-0.3,0-0.6,0-0.9c0-0.3,0-0.6,0-0.8
		C88.7,62.7,88.7,62.4,88.7,62z"/>
	<path class="st0" d="M100.3,48H77.6V32.4h3.9v11.1h5.3V33.2h3.8v10.3h5.9V31.8h3.9V48z"/>
	<path class="st0" d="M100.3,23.3l-22.6,7.6L77.5,26l18.7-5.4l-18.7-5.3l0.1-4.9l22.6,7.6V23.3z"/>
</g>
<g class="st1">
	<path class="st0" d="M112.7,75.5l3.5,0.8c-0.2,0.4-0.3,0.9-0.4,1.5c-0.1,0.5-0.2,1.1-0.3,1.7c-0.1,0.6-0.2,1.2-0.2,1.7
		c0,0.6-0.1,1.1-0.1,1.7c0,1.4,0.2,2.6,0.7,3.4c0.4,0.8,1.1,1.2,2,1.2c0.4,0,0.8-0.1,1.2-0.3c0.3-0.2,0.7-0.6,1-1.1s0.6-1.1,0.9-1.9
		c0.3-0.8,0.6-1.7,0.9-2.9c0.3-1.2,0.7-2.2,1.1-3.1c0.4-0.9,0.9-1.6,1.4-2.2c0.5-0.6,1.1-1,1.8-1.3c0.7-0.3,1.5-0.4,2.4-0.4
		c1.4,0,2.6,0.4,3.6,1.1c1,0.8,1.7,1.8,2.2,3.3c0.5,1.4,0.8,3.2,0.8,5.3c0,0.7,0,1.4-0.1,2.2c-0.1,0.8-0.2,1.5-0.3,2.3
		c-0.1,0.8-0.3,1.5-0.4,2.2c-0.2,0.7-0.4,1.4-0.6,1.9l-3.4-0.9c0.2-0.6,0.4-1.2,0.5-1.9c0.2-0.7,0.3-1.4,0.4-2.1
		c0.1-0.7,0.2-1.4,0.3-2.1c0.1-0.7,0.1-1.3,0.1-2c0-1.1-0.1-2-0.3-2.7c-0.2-0.7-0.5-1.3-0.9-1.6c-0.4-0.4-0.9-0.5-1.5-0.5
		c-0.5,0-0.9,0.1-1.2,0.4c-0.3,0.3-0.7,0.7-0.9,1.3s-0.6,1.3-0.9,2.2c-0.3,0.9-0.6,1.9-1,3.1c-0.4,1-0.8,2-1.2,2.7
		c-0.4,0.8-0.9,1.4-1.4,1.9c-0.5,0.5-1.1,0.9-1.8,1.1c-0.7,0.3-1.4,0.4-2.3,0.4c-1,0-1.8-0.2-2.6-0.6c-0.8-0.4-1.5-0.9-2.1-1.7
		c-0.6-0.8-1-1.7-1.3-2.9c-0.3-1.2-0.5-2.5-0.5-4.1c0-0.9,0-1.9,0.1-2.8c0.1-0.9,0.2-1.8,0.4-2.6C112.3,76.7,112.5,76.1,112.7,75.5z
		"/>
	<path class="st0" d="M134.7,71.7H112v-4.5h18.8V56.6h3.9V71.7z"/>
	<path class="st0" d="M134.7,54.1H112v-4.5h22.7V54.1z"/>
	<path class="st0" d="M135,37.3c0,1,0,2,0,3s-0.1,1.9-0.1,2.8c0,0.9-0.1,1.8-0.1,2.6H112c-0.1-1-0.2-1.9-0.2-2.8
		c0-0.9-0.1-1.8-0.1-2.6c0-0.9,0-1.8,0-2.7c0-2.6,0.4-4.7,1.2-6.3c0.8-1.6,2.1-2.8,3.8-3.5c1.7-0.8,4-1.1,6.7-1.1
		c2.7,0,4.9,0.4,6.6,1.2c1.7,0.8,3,2,3.8,3.6C134.6,32.9,135,34.9,135,37.3z M131.5,37c0-1.3-0.3-2.3-0.8-3.2
		c-0.5-0.9-1.4-1.5-2.6-1.9c-1.2-0.4-2.8-0.7-4.7-0.7c-2,0-3.6,0.2-4.8,0.6c-1.2,0.4-2,1.1-2.6,1.9c-0.5,0.9-0.8,2-0.8,3.4
		c0,0.4,0,0.8,0,1.3c0,0.5,0,0.9,0,1.4c0,0.4,0,0.9,0.1,1.3h16c0-0.3,0-0.7,0.1-1c0-0.3,0-0.7,0-1c0-0.3,0-0.7,0-1
		C131.5,37.7,131.5,37.4,131.5,37z"/>
	<path class="st0" d="M134.7,23.5H112V7.8h3.9v11.1h5.3V8.6h3.8v10.3h5.9V7.2h3.9V23.5z"/>
</g>
</svg>
