<?xml version="1.0" encoding="utf-8"?>
<!-- Generator: Adobe Illustrator 26.0.1, SVG Export Plug-In . SVG Version: 6.00 Build 0)  -->
<svg version="1.1" id="Layer_1" xmlns="http://www.w3.org/2000/svg" xmlns:xlink="http://www.w3.org/1999/xlink" x="0px" y="0px"
	 viewBox="0 0 100 100" style="enable-background:new 0 0 100 100;" xml:space="preserve">
<g>
	<g>
		<path d="M83.4,86.7c0-1.3-0.8-2.1-1.6-2.9c-11-11-22.1-22.1-33.1-33.1c-1.4-1.4-1.4-1.4,0-2.8c10.6-10.5,21.1-21,31.6-31.5
			c0.4-0.4,0.9-0.9,1.3-1.4c0.8-1.2,0.8-2.4,0-3.6c-1.3-1.9-3.5-2-5.5,0C63.8,23.7,51.6,36,39.3,48.2c-1,1-0.8,1.5,0.1,2.4
			c3.1,3.1,6.2,6.2,9.3,9.3c9.4,9.5,18.9,19,28.4,28.5c0.9,0.9,1.8,1.6,2.6,1.6C82.1,90,83.4,88.7,83.4,86.7z"/>
	</g>
	<g>
		<path d="M61.4,86.7c0-1.3-0.8-2.1-1.6-2.9c-11-11-22.1-22.1-33.1-33.1c-1.4-1.4-1.4-1.4,0-2.8c10.6-10.5,21.1-21,31.6-31.5
			c0.4-0.4,0.9-0.9,1.3-1.4c0.8-1.2,0.8-2.4,0-3.6c-1.3-1.9-3.5-2-5.5,0C41.8,23.7,29.6,36,17.3,48.2c-1,1-0.8,1.5,0.1,2.4
			c3.1,3.1,6.2,6.2,9.3,9.3c9.4,9.5,18.9,19,28.4,28.5c0.9,0.9,1.8,1.6,2.6,1.6C60.1,90,61.4,88.7,61.4,86.7z"/>
	</g>
</g>
</svg>
