<?xml version="1.0" encoding="utf-8"?>
<!-- Generator: Adobe Illustrator 26.0.1, SVG Export Plug-In . SVG Version: 6.00 Build 0)  -->
<svg version="1.1" id="Layer_1" xmlns="http://www.w3.org/2000/svg" xmlns:xlink="http://www.w3.org/1999/xlink" x="0px" y="0px"
	 viewBox="0 0 269 100" style="enable-background:new 0 0 269 100;" xml:space="preserve">
<style type="text/css">
	.st0{fill:#FFFFFF;stroke:#FFFFFF;stroke-miterlimit:10;}
</style>
<g>
	<g>
		<path class="st0" d="M84,86.7c0-1.3-0.8-2.1-1.6-2.9c-11-11-22.1-22.1-33.1-33.1c-1.4-1.4-1.4-1.4,0-2.8
			c10.6-10.5,21.1-21,31.6-31.5c0.4-0.4,0.9-0.9,1.3-1.4c0.8-1.2,0.8-2.4,0-3.6c-1.3-1.9-3.5-2-5.5,0C64.4,23.7,52.2,36,39.9,48.2
			c-1,1-0.8,1.5,0.1,2.4c3.1,3.1,6.2,6.2,9.3,9.3c9.4,9.5,18.9,19,28.4,28.5c0.9,0.9,1.8,1.6,2.6,1.6C82.7,90,84,88.7,84,86.7z"/>
	</g>
	<g>
		<path class="st0" d="M62,86.7c0-1.3-0.8-2.1-1.6-2.9c-11-11-22.1-22.1-33.1-33.1c-1.4-1.4-1.4-1.4,0-2.8
			c10.6-10.5,21.1-21,31.6-31.5c0.4-0.4,0.9-0.9,1.3-1.4c0.8-1.2,0.8-2.4,0-3.6c-1.3-1.9-3.5-2-5.5,0C42.4,23.7,30.2,36,17.9,48.2
			c-1,1-0.8,1.5,0.1,2.4c3.1,3.1,6.2,6.2,9.3,9.3c9.4,9.5,18.9,19,28.4,28.5c0.9,0.9,1.8,1.6,2.6,1.6C60.7,90,62,88.7,62,86.7z"/>
	</g>
</g>
<g>
	<path class="st0" d="M96.3,42.5V18.9c1.4-0.1,2.5-0.1,3.5-0.2c1,0,1.8-0.1,2.4-0.1s1.2,0,1.6,0c1.9,0,3.5,0.1,4.7,0.4
		c1.2,0.3,2.2,0.7,2.9,1.3s1.2,1.4,1.5,2.4c0.3,1,0.4,2.2,0.4,3.6c0,1.5-0.2,2.7-0.5,3.8c-0.3,1-0.8,1.9-1.5,2.5
		c-0.7,0.7-1.6,1.1-2.7,1.4c-1.1,0.3-2.5,0.4-4.1,0.4c-0.5,0-0.8,0-1.2,0s-0.7,0-1,0c-0.3,0-0.6,0-0.9,0c-0.3,0-0.7,0-1,0
		c-0.4,0-0.8,0-1.3-0.1v8.1H96.3z M99.3,21.1V32c0.5,0,0.9,0,1.3,0c0.4,0,0.8,0,1.1,0s0.7,0,1.1,0c0.4,0,0.8,0,1.2,0
		c1.3,0,2.4-0.1,3.2-0.3c0.9-0.2,1.5-0.6,2-1c0.5-0.5,0.8-1.1,1.1-1.8c0.2-0.8,0.3-1.7,0.3-2.7c0-1-0.1-1.8-0.3-2.4
		c-0.2-0.7-0.5-1.2-1-1.7c-0.5-0.4-1.1-0.8-2-0.9c-0.8-0.2-1.9-0.3-3.2-0.3c-0.3,0-0.6,0-0.9,0s-0.6,0-1,0c-0.4,0-0.8,0-1.3,0.1
		C100.5,21,99.9,21.1,99.3,21.1z"/>
	<path class="st0" d="M135.3,42.9c-0.6,0-1.1-0.1-1.7-0.3s-1.2-0.6-1.8-1c-0.6-0.5-1.2-1.1-1.9-1.8c-0.6-0.7-1.3-1.6-2-2.7
		c-0.7-1.1-1.5-2.3-2.3-3.7c-0.2,0-0.5,0-0.9,0c-0.3,0-0.6,0-0.8,0c-0.6,0-1.3,0-2,0s-1.4,0-2.1,0v9.2H117V18.9
		c1-0.1,1.9-0.1,2.7-0.2c0.8,0,1.6-0.1,2.4-0.1c0.7,0,1.5,0,2.3,0c1.7,0,3.2,0.1,4.4,0.4s2.2,0.6,3,1.2c0.8,0.5,1.3,1.3,1.7,2.1
		c0.4,0.9,0.5,2,0.5,3.3c0,1.4-0.2,2.6-0.6,3.5c-0.4,1-1,1.7-1.8,2.3c-0.8,0.6-1.8,1-2.9,1.3c0.8,1.3,1.5,2.5,2.2,3.4
		c0.7,0.9,1.3,1.7,1.9,2.3c0.6,0.6,1.1,1,1.6,1.3c0.5,0.3,0.9,0.4,1.3,0.4c0,0,0.1,0,0.2,0c0.1,0,0.2,0,0.3-0.1l0.1,2.8
		c-0.1,0-0.2,0-0.4,0.1C135.7,42.9,135.5,42.9,135.3,42.9z M124.5,30.9c1.1,0,2.1-0.1,2.9-0.3c0.8-0.2,1.5-0.5,2-0.9
		c0.5-0.4,0.9-0.9,1.2-1.6c0.2-0.6,0.4-1.4,0.4-2.4c0-1.2-0.2-2.2-0.6-2.9c-0.4-0.7-1.1-1.2-2-1.6c-0.9-0.3-2.2-0.5-3.9-0.5
		c-0.4,0-0.8,0-1.2,0c-0.3,0-0.7,0-1,0c-0.3,0-0.7,0-1,0.1c-0.4,0-0.8,0-1.3,0.1v9.7c0.4,0,0.8,0,1.2,0.1c0.4,0,0.8,0,1.1,0
		c0.4,0,0.7,0,1.1,0C123.7,30.9,124.1,30.9,124.5,30.9z"/>
	<path class="st0" d="M138.9,42.5V18.9h15v2.6h-12v7.4H153v2.6h-11.2v8.4h12.6v2.6H138.9z"/>
	<path class="st0" d="M163.7,42.5L155.5,19l3.1-0.2l6.7,20.8l6.7-20.8l3.1,0.2L167,42.5H163.7z"/>
	<path class="st0" d="M177.7,42.5V18.9h2.9v23.6H177.7z"/>
	<path class="st0" d="M194.7,42.9c-1.1,0-2.2-0.1-3.2-0.4s-1.9-0.6-2.8-1.2c-0.9-0.6-1.6-1.3-2.2-2.2c-0.6-0.9-1.1-2.1-1.4-3.5
		c-0.3-1.4-0.5-3-0.5-4.9s0.2-3.5,0.5-4.9c0.3-1.4,0.8-2.5,1.4-3.5c0.6-0.9,1.3-1.7,2.2-2.2c0.8-0.6,1.8-1,2.8-1.2s2.1-0.4,3.3-0.4
		s2.3,0.1,3.3,0.4c1,0.2,2,0.6,2.8,1.2c0.8,0.6,1.6,1.3,2.2,2.2c0.6,0.9,1.1,2.1,1.4,3.4c0.3,1.4,0.5,3,0.5,4.9c0,1.9-0.2,3.6-0.5,5
		c-0.3,1.4-0.8,2.6-1.4,3.5c-0.6,0.9-1.3,1.7-2.2,2.2c-0.8,0.6-1.8,0.9-2.8,1.2C197,42.8,195.8,42.9,194.7,42.9z M194.7,40.5
		c0.8,0,1.5-0.1,2.2-0.3c0.7-0.2,1.4-0.5,2-0.9c0.6-0.4,1.1-1,1.6-1.8c0.4-0.7,0.8-1.7,1.1-2.8c0.3-1.1,0.4-2.5,0.4-4
		c0-1.6-0.1-2.9-0.4-4.1c-0.3-1.1-0.6-2.1-1.1-2.8s-1-1.3-1.6-1.8c-0.6-0.4-1.3-0.7-2-0.9c-0.7-0.2-1.5-0.3-2.2-0.3
		s-1.5,0.1-2.2,0.3c-0.7,0.2-1.4,0.5-2,0.9c-0.6,0.4-1.1,1-1.6,1.8c-0.5,0.8-0.8,1.7-1.1,2.8c-0.3,1.1-0.4,2.5-0.4,4.1
		c0,1.6,0.1,2.9,0.4,4c0.3,1.1,0.6,2,1.1,2.8c0.4,0.8,1,1.3,1.6,1.8s1.3,0.7,2,0.9C193.2,40.4,193.9,40.5,194.7,40.5z"/>
	<path class="st0" d="M208.3,35.4V18.9h2.9v16.5c0,0.8,0.1,1.5,0.3,2.1c0.2,0.6,0.5,1.1,0.9,1.4c0.4,0.4,0.9,0.7,1.4,0.9
		s1.1,0.4,1.7,0.5c0.6,0.1,1.2,0.1,1.8,0.1c0.6,0,1.2,0,1.8-0.1c0.6-0.1,1.2-0.2,1.7-0.5c0.5-0.2,1-0.5,1.4-0.9
		c0.4-0.4,0.7-0.9,0.9-1.4s0.3-1.3,0.3-2.1V18.9h2.9v16.5c0,1.2-0.2,2.2-0.5,3c-0.3,0.8-0.7,1.6-1.3,2.1c-0.6,0.6-1.2,1-2,1.4
		s-1.6,0.6-2.5,0.7s-1.9,0.2-2.9,0.2c-1,0-1.9-0.1-2.8-0.2c-0.9-0.1-1.7-0.4-2.5-0.7c-0.8-0.3-1.4-0.8-2-1.4c-0.6-0.6-1-1.3-1.3-2.1
		C208.5,37.6,208.3,36.6,208.3,35.4z"/>
	<path class="st0" d="M245.2,19.6l-0.6,2.3c-0.4-0.1-0.9-0.3-1.4-0.4c-0.5-0.1-1.1-0.2-1.6-0.3c-0.6-0.1-1.1-0.2-1.7-0.2
		c-0.6,0-1.1-0.1-1.6-0.1c-1.7,0-3.1,0.3-4.1,1c-1,0.7-1.5,1.6-1.5,2.8c0,0.5,0.1,1,0.4,1.5s0.6,0.8,1.1,1.2c0.5,0.4,1.2,0.7,2,1.1
		c0.8,0.4,1.9,0.7,3.1,1.1c1.3,0.4,2.4,0.8,3.3,1.3c0.9,0.5,1.6,1,2.2,1.5s1,1.1,1.2,1.8c0.3,0.7,0.4,1.4,0.4,2.3
		c0,1.3-0.4,2.5-1.1,3.4c-0.7,0.9-1.7,1.7-3.1,2.2s-3,0.8-5,0.8c-0.6,0-1.3,0-2.1-0.1c-0.7-0.1-1.5-0.2-2.3-0.3
		c-0.8-0.1-1.5-0.3-2.2-0.4c-0.7-0.2-1.3-0.4-1.8-0.6l0.6-2.3c0.5,0.2,1.1,0.4,1.8,0.5c0.7,0.2,1.3,0.3,2,0.4
		c0.7,0.1,1.4,0.2,2.1,0.3c0.7,0.1,1.3,0.1,1.9,0.1c1.3,0,2.4-0.1,3.3-0.4c0.9-0.3,1.6-0.7,2-1.3c0.5-0.6,0.7-1.3,0.7-2
		c0-0.6-0.1-1.1-0.4-1.5s-0.7-0.9-1.2-1.2c-0.6-0.4-1.3-0.7-2.2-1.1c-0.9-0.4-2-0.8-3.2-1.2c-1.2-0.4-2.2-0.9-3.1-1.3
		c-0.9-0.4-1.5-0.9-2.1-1.5s-0.9-1.1-1.2-1.8c-0.3-0.7-0.4-1.4-0.4-2.2c0-0.9,0.2-1.8,0.6-2.5c0.4-0.8,0.9-1.4,1.7-2
		c0.7-0.6,1.6-1,2.7-1.3c1.1-0.3,2.3-0.5,3.7-0.5c0.8,0,1.6,0.1,2.5,0.2s1.7,0.2,2.4,0.4C244,19.3,244.6,19.4,245.2,19.6z"/>
	<path class="st0" d="M95.4,71.6c0-3,0.4-5.4,1.2-7.2c0.8-1.8,2-3.2,3.6-4c1.6-0.8,3.5-1.3,5.8-1.3c0.7,0,1.3,0,1.8,0.1
		c0.6,0,1.1,0.1,1.6,0.2s1,0.2,1.5,0.3c0.5,0.1,1,0.2,1.5,0.4l-0.6,2.3c-0.7-0.2-1.3-0.3-1.9-0.4c-0.6-0.1-1.2-0.2-1.8-0.2
		c-0.6,0-1.3-0.1-1.9-0.1c-1.3,0-2.4,0.2-3.4,0.5c-1,0.3-1.8,0.9-2.4,1.7c-0.7,0.8-1.1,1.8-1.5,3.1c-0.3,1.3-0.5,2.9-0.5,4.7
		c0,1.7,0.2,3.2,0.5,4.3c0.3,1.2,0.8,2.1,1.5,2.8c0.7,0.7,1.4,1.2,2.4,1.6c0.9,0.3,2,0.5,3.3,0.5c1.1,0,2.2-0.1,3.3-0.2
		c1.2-0.2,2.2-0.4,3.2-0.7l0.5,2.4c-0.5,0.2-1.1,0.3-1.6,0.4c-0.6,0.1-1.2,0.2-1.8,0.3c-0.6,0.1-1.3,0.2-2,0.2s-1.4,0.1-2.1,0.1
		c-1.6,0-3.1-0.2-4.3-0.6c-1.3-0.4-2.3-1.1-3.2-2c-0.9-0.9-1.5-2.1-2-3.6C95.6,75.6,95.4,73.8,95.4,71.6z"/>
	<path class="st0" d="M116.4,83V59.4h2.9v11.9h12.4V59.4h2.9V83h-2.9v-9.1h-12.4V83H116.4z"/>
	<path class="st0" d="M137.3,83l8.1-23.8h3.3l8.1,23.8h-3.2l-2-6.1h-9.2l-2,6.1H137.3z M143,74.5h8L147,62L143,74.5z"/>
	<path class="st0" d="M159.6,83V59.3c1.4-0.1,2.5-0.1,3.5-0.2c1,0,1.8-0.1,2.4-0.1c0.7,0,1.2,0,1.6,0c1.9,0,3.5,0.1,4.7,0.4
		s2.2,0.7,2.9,1.3c0.7,0.6,1.2,1.4,1.5,2.4c0.3,1,0.4,2.2,0.4,3.6c0,1.5-0.2,2.7-0.5,3.8c-0.3,1-0.8,1.9-1.5,2.5
		c-0.7,0.7-1.6,1.1-2.7,1.4s-2.5,0.4-4.1,0.4c-0.5,0-0.8,0-1.2,0s-0.7,0-1,0c-0.3,0-0.6,0-0.9,0c-0.3,0-0.7,0-1,0
		c-0.4,0-0.8,0-1.3-0.1V83H159.6z M162.5,61.6v10.9c0.5,0,0.9,0,1.3,0c0.4,0,0.8,0,1.1,0s0.7,0,1.1,0c0.4,0,0.8,0,1.2,0
		c1.3,0,2.4-0.1,3.2-0.3c0.9-0.2,1.5-0.6,2-1s0.8-1.1,1.1-1.8c0.2-0.8,0.3-1.7,0.3-2.7c0-1-0.1-1.8-0.3-2.4c-0.2-0.7-0.5-1.2-1-1.7
		c-0.5-0.4-1.1-0.8-2-0.9c-0.8-0.2-1.9-0.3-3.2-0.3c-0.3,0-0.6,0-0.9,0s-0.6,0-1,0c-0.4,0-0.8,0-1.3,0.1
		C163.7,61.5,163.1,61.5,162.5,61.6z"/>
	<path class="st0" d="M195.4,62h-7.2v21h-2.9V62H178v-2.6h17.4V62z"/>
	<path class="st0" d="M198.2,83V59.4h15V62h-12v7.4h11.2V72h-11.2v8.4h12.6V83H198.2z"/>
	<path class="st0" d="M235.4,83.3c-0.6,0-1.1-0.1-1.7-0.3c-0.6-0.2-1.2-0.6-1.8-1c-0.6-0.5-1.2-1.1-1.9-1.8s-1.3-1.6-2-2.7
		s-1.5-2.3-2.3-3.7c-0.2,0-0.5,0-0.9,0c-0.3,0-0.6,0-0.8,0c-0.6,0-1.3,0-2,0c-0.7,0-1.4,0-2.1,0V83H217V59.3c1-0.1,1.9-0.1,2.7-0.2
		c0.8,0,1.6-0.1,2.4-0.1c0.7,0,1.5,0,2.3,0c1.7,0,3.2,0.1,4.4,0.4c1.2,0.2,2.2,0.6,3,1.2c0.8,0.5,1.3,1.3,1.7,2.1
		c0.4,0.9,0.5,2,0.5,3.3c0,1.4-0.2,2.6-0.6,3.5c-0.4,1-1,1.7-1.8,2.3s-1.8,1-2.9,1.3c0.8,1.3,1.5,2.5,2.2,3.4
		c0.7,0.9,1.3,1.7,1.9,2.3c0.6,0.6,1.1,1,1.6,1.3s0.9,0.4,1.3,0.4c0,0,0.1,0,0.2,0c0.1,0,0.2,0,0.3-0.1l0.1,2.8
		c-0.1,0-0.2,0-0.4,0.1S235.6,83.3,235.4,83.3z M224.5,71.4c1.1,0,2.1-0.1,2.9-0.3c0.8-0.2,1.5-0.5,2-0.9c0.5-0.4,0.9-0.9,1.2-1.6
		s0.4-1.4,0.4-2.4c0-1.2-0.2-2.2-0.6-2.9c-0.4-0.7-1.1-1.2-2-1.6s-2.2-0.5-3.9-0.5c-0.5,0-0.8,0-1.2,0s-0.7,0-1,0
		c-0.3,0-0.7,0-1,0.1c-0.4,0-0.8,0-1.3,0.1v9.7c0.4,0,0.8,0,1.2,0.1c0.4,0,0.8,0,1.1,0c0.4,0,0.7,0,1.1,0
		C223.7,71.4,224.1,71.4,224.5,71.4z"/>
</g>
</svg>
