<?xml version="1.0" encoding="utf-8"?>
<!-- Generator: Adobe Illustrator 26.0.1, SVG Export Plug-In . SVG Version: 6.00 Build 0)  -->
<svg version="1.1" id="Layer_1" xmlns="http://www.w3.org/2000/svg" xmlns:xlink="http://www.w3.org/1999/xlink" x="0px" y="0px"
	 viewBox="0 0 100 100" style="enable-background:new 0 0 100 100;" xml:space="preserve">
<g>
	<path d="M68.7,90c-0.8,0-1.7-0.7-2.6-1.6c-9.5-9.5-19-19-28.4-28.5c-3.1-3.1-6.2-6.2-9.3-9.3c-0.9-0.9-1.1-1.4-0.1-2.4
		C40.6,36,52.8,23.7,65.1,11.4c2-2,4.2-1.9,5.5,0c0.8,1.2,0.8,2.4,0,3.6c-0.4,0.5-0.9,1-1.3,1.4C58.7,27,48.2,37.5,37.7,48
		c-1.4,1.4-1.4,1.4,0,2.8c11,11,22.1,22.1,33.1,33.1c0.8,0.8,1.6,1.6,1.6,2.9C72.4,88.7,71.1,90,68.7,90z"/>
</g>
</svg>
